<svg width="512" height="512" viewBox="0 0 512 512" fill="none" xmlns="http://www.w3.org/2000/svg">
<path d="M131.625 276.937C181.69 294.056 234.791 290.507 284.453 274.39C285.117 274.175 285.781 273.959 286.466 273.737C288.276 273.147 290.084 272.55 291.892 271.952C297.446 270.251 302.227 269.807 308 270C309.637 271.636 309.404 273.432 309.563 275.687C309.529 280.424 309.529 280.424 307.426 282.715C306.026 283.677 304.605 284.61 303.168 285.515C297.455 289.427 293.302 296.232 292 303C290.33 321.41 299.207 337.329 310.598 351.433C316.949 358.527 323.885 361.978 333.422 363.347C339.304 363.587 344.469 361.815 350 360C353.849 358.889 355.38 358.793 359.188 360.062C363.383 363.173 363.313 368.575 364.172 373.383C365.873 380.812 370.011 387.057 376.012 391.754C381.617 395.267 387.496 397.046 394 398C399.759 414.677 404.092 429.324 396.375 446.125C391.311 455.643 384.065 462.02 374 466C366.248 468.101 358.681 468.285 350.692 468.26C349.381 468.264 348.07 468.268 346.72 468.272C343.105 468.282 339.491 468.28 335.877 468.276C331.97 468.273 328.062 468.282 324.155 468.29C316.51 468.303 308.864 468.304 301.219 468.302C295.002 468.3 288.785 468.302 282.568 468.306C281.682 468.307 280.796 468.308 279.883 468.308C278.083 468.309 276.283 468.311 274.482 468.312C257.614 468.323 240.745 468.32 223.877 468.314C208.459 468.309 193.042 468.32 177.625 468.339C161.778 468.359 145.93 468.367 130.082 468.363C121.192 468.361 112.302 468.364 103.411 468.378C95.843 468.39 88.2749 468.391 80.7066 468.379C76.8489 468.373 72.9913 468.372 69.1336 468.384C64.9431 468.397 60.7529 468.387 56.5624 468.374C54.7516 468.385 54.7516 468.385 52.9042 468.396C39.324 468.31 28.1935 465.326 17.9338 456.152C9.50943 447.291 6.44496 436.523 6.62036 424.575C6.8872 419.884 8.02303 415.727 9.44946 411.269C9.71253 410.421 9.9756 409.572 10.2466 408.698C11.1519 405.794 12.0746 402.897 13.0002 400C13.5116 398.39 13.5116 398.39 14.0332 396.748C16.7457 388.219 19.4942 379.702 22.2502 371.187C23.7392 366.585 25.2278 361.982 26.716 357.379C27.1335 356.088 27.5512 354.797 27.969 353.506C30.4197 345.931 32.8466 338.35 35.219 330.75C35.6651 329.33 36.1113 327.911 36.5579 326.491C37.3129 324.083 38.0594 321.671 38.7942 319.256C42.8177 306.489 48.2979 295.422 58.0002 286C58.8104 285.159 58.8104 285.159 59.637 284.301C79.8236 264.928 107.622 268.662 131.625 276.937Z" fill="#1D88E5"/>
<path d="M255.999 58.0001C257 58.557 258 59.1138 259.031 59.6876C281.061 72.8553 296.887 95.2033 304.175 119.574C311.049 148.143 307.493 176.49 292.999 202C290.585 205.926 287.976 209.485 284.999 213C284.584 213.491 284.169 213.981 283.742 214.486C269.979 230.563 253.222 241.802 232.999 248C231.902 248.34 230.805 248.681 229.675 249.031C211.433 253.608 189.821 253.035 171.999 247C171.055 246.687 171.055 246.687 170.091 246.367C154.428 241.049 141.703 232.562 129.999 221C129.036 220.145 129.036 220.145 128.054 219.274C111.082 203.88 101.667 178.364 99.9994 156C98.7965 128.166 106.113 101.061 124.999 80.0001C125.835 78.9397 126.669 77.8774 127.499 76.8126C159.742 40.54 214.806 34.9856 255.999 58.0001Z" fill="#90CAF9"/>
<path d="M404.494 171.76C406.728 171.75 408.962 171.719 411.196 171.688C412.626 171.681 414.055 171.676 415.485 171.672C417.43 171.658 417.43 171.658 419.414 171.644C424.598 172.159 427.826 173.735 431.36 177.539C433.6 182.264 433.442 186.224 433.251 191.375C433.233 192.302 433.214 193.229 433.196 194.184C433.149 196.457 433.083 198.728 433.001 201C433.706 201.11 434.411 201.219 435.137 201.332C442.987 203.163 450.219 207.671 456.184 212.996C458.006 214.215 458.006 214.215 460.403 213.852C463.307 212.9 465.544 211.568 468.126 209.938C472.992 207.229 476.769 206.305 482.297 206.203C489.597 208.355 493.279 214.527 496.833 220.846C497.342 221.783 497.851 222.721 498.376 223.688C498.908 224.637 499.44 225.586 499.989 226.564C503.484 232.848 505.717 237.625 505.001 245C503.089 251.371 498.448 253.794 493.001 257C492.293 257.418 491.585 257.835 490.856 258.266C489.248 259.196 487.626 260.101 486.001 261C486.166 262.258 486.331 263.516 486.501 264.812C487.433 273.299 487.109 281.551 486.001 290C486.881 290.519 487.761 291.039 488.669 291.574C489.842 292.278 491.015 292.983 492.188 293.688C492.766 294.027 493.344 294.367 493.94 294.717C498.7 297.594 503.176 300.527 505.001 306C505.965 314.487 503.112 319.562 498.813 326.75C498.235 327.764 497.657 328.779 497.061 329.824C489.45 342.913 489.45 342.913 483.001 345C477.454 345.588 474.647 344.46 470.102 341.646C466.554 339.501 463.142 337.613 459.001 337C453.74 338.357 449.725 342.257 445.672 345.7C442.199 348.401 438.118 349.62 434.001 351C433.944 352.97 433.944 352.97 433.887 354.98C433.822 356.716 433.755 358.452 433.688 360.188C433.665 361.052 433.643 361.916 433.62 362.807C433.353 369.132 432.347 372.777 427.626 377.25C421.664 381.225 414.093 380.219 407.188 380.25C406.038 380.271 404.887 380.291 403.702 380.312C389.6 380.377 389.6 380.377 384.395 375.493C378.928 369.106 380.094 358.916 380.001 351C378.95 350.492 377.899 349.984 376.817 349.461C369.211 345.745 361.851 342.024 355.001 337C354.011 337.577 353.021 338.155 352.001 338.75C350.668 339.501 349.334 340.251 348.001 341C347.352 341.382 346.704 341.763 346.036 342.156C340.187 345.399 335.508 346.002 328.938 344.125C324.417 340.854 321.916 336.706 319.001 332C318.608 331.388 318.216 330.777 317.812 330.146C308.917 316.171 308.917 316.171 309.294 307.43C310.982 301.629 314.219 298.45 319.329 295.629C319.963 295.298 320.597 294.966 321.251 294.625C322.225 294.093 322.225 294.093 323.219 293.551C324.806 292.687 326.402 291.842 328.001 291C330.076 274.526 330.076 274.526 326.789 258.858C323.416 255.598 319.397 254.476 315.001 253C311.705 250.261 310.335 248.227 309.69 243.933C309.259 236.072 312.107 230.88 316.063 224.25C316.905 222.748 316.905 222.748 317.764 221.215C321.457 214.842 325.284 208.49 332.633 206.168C340.035 206.226 344.858 208.69 351.055 212.664C353.872 214.299 353.872 214.299 356.555 213.422C359.179 211.896 361.728 210.314 364.251 208.625C376.014 201 376.014 201 381.001 201C380.966 199.854 380.931 198.708 380.895 197.527C380.867 195.997 380.84 194.467 380.813 192.938C380.788 192.185 380.763 191.433 380.737 190.658C380.668 185.327 381.481 181.723 384.001 177C390.39 171.078 396.216 171.781 404.494 171.76ZM379.688 255.875C373.759 264.502 372.395 273.726 374.001 284C376.232 290.715 379.495 296.458 385.001 301C386.393 302.299 386.393 302.299 387.813 303.625C394.92 308.921 403.202 310.781 411.989 309.598C422.126 307.421 430.088 302.599 436.001 294C441.035 285.4 442.527 276.941 440.352 267.051C437.18 257.331 430.723 250.234 422.001 245C406.893 237.627 389.886 243.128 379.688 255.875Z" fill="#8FCAF9"/>
<path d="M381.001 351C382.418 351.142 383.834 351.289 385.251 351.438C386.434 351.559 386.434 351.559 387.641 351.684C390.001 352 390.001 352 391.797 352.509C396.561 353.57 401.58 353.19 406.438 353.188C407.608 353.188 408.777 353.189 409.983 353.189C417.836 353.141 425.318 352.742 433.001 351C433.082 354.063 433.141 357.124 433.188 360.188C433.213 361.052 433.238 361.916 433.264 362.807C433.321 367.721 433.217 371.016 430.001 375C423.407 381.247 415.788 380.212 407.188 380.25C406.038 380.271 404.887 380.291 403.702 380.312C396.401 380.346 390.173 380.138 384.126 375.59C379.217 368.38 380.6 359.329 381.001 351Z" fill="#64B5F6"/>
<path d="M330.001 291C330.438 292.415 330.438 292.415 330.883 293.859C335.468 308.37 341.355 320.739 352.501 331.438C355.001 334 355.001 334 355.001 337C352.678 338.355 350.345 339.683 348.001 341C347.352 341.382 346.704 341.763 346.036 342.156C340.187 345.399 335.508 346.002 328.938 344.125C324.417 340.854 321.916 336.706 319.001 332C318.608 331.388 318.216 330.777 317.812 330.146C308.917 316.171 308.917 316.171 309.294 307.43C310.964 301.69 314.185 298.456 319.231 295.629C319.856 295.298 320.481 294.966 321.126 294.625C321.758 294.271 322.391 293.916 323.044 293.551C327.682 291 327.682 291 330.001 291Z" fill="#64B5F6"/>
<path d="M484 291C491.83 292.174 498.956 296.98 504 303C505.747 308.242 505.935 312.702 503.858 317.807C502.27 320.853 500.576 323.802 498.812 326.75C498.234 327.764 497.656 328.779 497.061 329.824C489.45 342.913 489.45 342.913 483 345C476.736 345.591 472.908 343.895 467.562 341C466.465 340.428 466.465 340.428 465.346 339.844C463.557 338.909 461.778 337.956 460 337C460 334 460 334 461.285 332.527C461.872 332.003 462.458 331.478 463.062 330.938C474.079 320.298 481.128 305.936 484 291Z" fill="#64B5F6"/>
<path d="M479.25 206.562C480.163 206.502 481.075 206.441 482.016 206.379C487.422 207.504 490.591 210.956 493.664 215.414C495.311 218.136 496.857 220.892 498.375 223.688C498.907 224.637 499.44 225.586 499.988 226.564C503.484 232.848 505.716 237.625 505 245C503.095 251.351 498.48 253.863 493 257C490.36 258.411 487.708 259.72 485 261C484.752 260.237 484.505 259.474 484.25 258.688C483.838 257.471 483.425 256.254 483 255C482.743 254.211 482.487 253.422 482.223 252.609C478.291 241.067 470.792 222.896 459 217C459 216.34 459 215.68 459 215C461.52 213.309 461.52 213.309 464.812 211.438C465.891 210.817 466.97 210.197 468.082 209.559C471.912 207.513 474.952 206.761 479.25 206.562Z" fill="#64B5F6"/>
<path d="M340.999 207C345.953 209.156 350.489 212.05 354.999 215C353.509 218.467 351.503 220.692 348.874 223.375C339.228 233.908 333.084 247.119 329.999 261C326.43 259.659 323.211 258.078 319.937 256.125C319.1 255.633 318.264 255.14 317.402 254.633C313.781 252.172 311.399 250.2 309.999 246C308.698 237.342 311.702 231.556 316.062 224.25C316.904 222.748 316.904 222.748 317.763 221.215C323.387 211.51 328.941 204.143 340.999 207Z" fill="#64B5F6"/>
<path d="M404.493 171.76C406.728 171.75 408.961 171.719 411.195 171.688C412.625 171.681 414.055 171.676 415.484 171.672C417.429 171.658 417.429 171.658 419.413 171.644C424.598 172.159 427.825 173.735 431.359 177.539C433.599 182.264 433.441 186.224 433.25 191.375C433.232 192.302 433.214 193.229 433.195 194.184C433.149 196.457 433.083 198.728 433 201C432.054 200.783 431.108 200.567 430.133 200.344C413.316 196.716 397.818 197.6 381 201C380.918 198.312 380.859 195.626 380.813 192.938C380.775 191.809 380.775 191.809 380.736 190.658C380.667 185.327 381.48 181.723 384 177C390.389 171.078 396.215 171.781 404.493 171.76Z" fill="#64B5F6"/>
</svg>
